<?xml version="1.0" encoding="utf-8"?>
<!-- Generator: Adobe Illustrator 21.1.0, SVG Export Plug-In . SVG Version: 6.00 Build 0)  -->
<svg version="1.1" id="Layer_1" xmlns="http://www.w3.org/2000/svg" xmlns:xlink="http://www.w3.org/1999/xlink" x="0px" y="0px"
	 viewBox="0 0 1463 434" style="enable-background:new 0 0 1463 434;" xml:space="preserve">
<style type="text/css">
	.st0{fill:#4B3900;}
	.st1{fill:#F6E7A1;}
</style>
<g>
	<path class="st0" d="M32.9,348.7c0.5-2.4,1.2-4.8,2.2-6.9c0.9-2.2,2-4.6,3.1-7.3c1.1-2.7,2.3-5.9,3.6-9.7c1.3-3.7,2.5-8.4,3.8-14
		l7.3-32.6c1.8-7.9,3.6-15.9,5.5-24.2c1.9-8.2,4.1-17.5,6.6-27.8c2-8.3,4.4-17,7.2-26c2.8-9,5.8-18.4,8.8-28.1
		c3.1-9.7,6.2-19.6,9.3-29.8c3.1-10.2,6-20.7,8.5-31.6c0.1-0.4,0.2-0.9,0.2-1.6c0-1.1-0.3-1.8-0.9-2c-0.6-0.3-1.4-0.4-2.4-0.4
		c-3.1,0-5.7-0.5-7.8-1.5c-2.1-1-3.7-2.3-4.9-4c-1.2-1.6-2-3.5-2.5-5.6c-0.5-2.1-0.8-4.3-0.8-6.6c0-6,0.7-10.8,2-14.4
		c1.3-3.6,3-6.4,5.1-8.4c2.1-2,4.3-3.4,6.8-4.3c2.4-0.9,4.8-1.6,7.2-2.1c2.3-0.5,4.4-1.1,6.1-1.7c1.8-0.6,3-1.7,3.8-3.4
		c1.3-2.9,2.4-5.9,3.5-9.1c1.1-3.2,2.4-6.2,4-8.9c1.6-2.7,3.6-5,6-6.7c2.4-1.8,5.5-2.7,9.4-2.7c2.8,0,5.2,0.8,7.3,2.4
		c2.1,1.6,4,3.7,5.6,6.1c1.6,2.4,2.9,5.1,4,7.9c1.1,2.8,2.1,5.3,3,7.7c12.9,0.4,24.1,1.2,33.6,2.4c9.5,1.2,16.6,2.3,21.4,3.3
		c9.4,1.9,18.9,4.8,28.3,8.6c9.5,3.8,18,8.7,25.6,14.8c7.6,6.1,13.8,13.2,18.6,21.4c4.8,8.2,7.2,17.6,7.2,28.3
		c0,5.4-0.6,11.1-1.7,16.9l-1.3,7.1c-1,5.7-3.1,11-6.3,15.9c-3.2,4.9-6.8,9.3-10.8,13.3c-11.2,11.2-23.4,20.5-36.7,28.1
		c-13.3,7.5-27.2,13.9-41.6,19.1c-14.4,5.2-29.2,9.5-44.2,13.1c-15.1,3.5-29.9,6.9-44.6,10l-5.3,0.8c-2.9,0.4-4.6,1.6-5.1,3.5
		c-2.5,9.4-4.5,17.6-5.9,24.7c-1.4,7.1-2.8,13.8-4,20.3c-1.3,6.5-2.5,12.9-3.8,19.4c-1.3,6.5-2.8,13.6-4.7,21.5
		c-0.6,2.6-1.8,5.6-3.4,9.2c-1.6,3.5-3.6,6.9-5.8,10c-2.3,3.1-4.9,5.8-7.8,8.1c-2.9,2.2-6.1,3.4-9.3,3.4c-2.3,0-4.2-0.7-5.8-2
		c-1.6-1.4-3-3.1-4-5.2c-1.1-2.1-1.9-4.4-2.4-6.8c-0.6-2.4-0.8-4.8-0.8-6.9c0-0.8,0-1.6,0-2.3C32.5,350.1,32.6,349.4,32.9,348.7z
		 M107.6,197.9c-0.3,1-0.6,2.1-1,3.6c-0.4,1.4-0.8,2.9-1.2,4.5c-0.4,1.6-0.7,3-0.9,4.3c-0.3,1.3-0.4,2.2-0.4,2.8
		c0,0.7,0.1,1.3,0.3,1.7c0.2,0.5,0.6,0.7,1.2,0.7c0.4,0,1.6-0.2,3.6-0.5c2-0.3,4.4-0.8,7.2-1.3c2.8-0.5,5.9-1.2,9.1-1.8
		c3.3-0.7,6.4-1.4,9.4-2c8.2-1.9,16.9-4.3,26.2-7.2c9.3-2.9,18.5-6.2,27.8-9.9c9.2-3.7,18-7.6,26.4-11.8c8.4-4.2,15.9-8.7,22.4-13.5
		c6.9-5,12.4-10.1,16.6-15.1c4.1-5,6.2-10.4,6.2-16.1c0-3.4-0.4-6.4-1.2-9.1c-0.8-2.7-1.7-5.1-2.7-7.2c-3.8-6.7-8.5-11.9-14.1-15.7
		c-5.6-3.8-11.8-6.7-18.4-8.6c-6.7-1.9-13.6-3.1-20.9-3.7c-7.3-0.5-14.4-0.8-21.5-0.8c-1.9,0-4.7,0.1-8.6,0.4c-3.8,0.3-7.8,0.6-12,1
		c-4.2,0.4-8.1,0.9-11.7,1.5c-3.6,0.6-6,1.3-7.2,2.1c-0.6,0.4-1.2,1.1-1.6,2c-0.4,1-0.8,1.8-1,2.4c-1,2.7-2.4,6.5-4.1,11.3
		c-1.8,4.8-3.6,10.2-5.6,16.2c-2,6-4.1,12.3-6.3,19c-2.2,6.7-4.3,13.2-6.3,19.5c-2,6.3-3.9,12.2-5.6,17.7
		C109.8,189.8,108.5,194.4,107.6,197.9z"/>
	<path class="st0" d="M689.8,294.8c0-11.4,1.2-23.3,3.6-35.6c2.4-12.3,4.9-24.1,7.5-35.4c-3.3-0.1-6.6-0.7-10-1.6
		c-3.4-0.9-6.5-2.2-9.2-3.9c-2.8-1.6-5-3.6-6.8-6c-1.8-2.4-2.6-5.1-2.6-8.3c0-1.2,0.3-2.8,0.8-4.7c0.5-1.9,1.2-3.8,2.2-5.6
		c0.9-1.8,2.2-3.4,3.7-4.7c1.5-1.3,3.2-1.9,5.1-1.9h25.2c2.4,0,4-1.1,4.9-3.4c0.9-2.2,1.6-4.5,2.1-6.6c1.6-7.9,3.2-14.7,4.6-20.5
		c1.4-5.8,2.7-10.7,3.7-14.7c1-4,1.8-7.3,2.4-9.8c0.6-2.5,0.8-4.5,0.8-6c0-1.8-0.1-3.5-0.2-5.1c-0.1-1.6-0.2-3.9-0.2-6.7v-2
		c0-1.1,0.1-2.5,0.3-4.3c0.2-1.8,0.8-4.3,1.8-7.5c0.8-2.6,2.1-5,4.1-7.3c2-2.3,5-3.5,8.8-3.5c3.4,0,6.3,0.7,8.7,2.2
		c2.4,1.5,4.3,3.5,5.8,5.9s2.6,5.2,3.4,8.4c0.8,3.1,1.1,6.3,1.1,9.4c0,3.4-0.3,6.5-0.9,9.2l-13.7,57.1c6.8-1.2,12.8-2.4,18.1-3.5
		c5.3-1.1,10.5-2.2,15.8-3.3c5.8-1.2,10.8-2.4,15-3.5c4.2-1.1,7.8-2,10.8-2.8c3-0.7,5.6-1.4,7.6-1.8c2.1-0.5,3.8-0.7,5.2-0.7
		c2,0,4,0.2,6.1,0.5c2.1,0.3,3.9,0.9,5.5,1.7c1.6,0.8,2.9,2,3.9,3.5c1,1.5,1.5,3.5,1.5,5.9c0,3.3-0.6,6.2-1.8,8.7
		c-1.2,2.5-2.7,4.7-4.6,6.5c-1.9,1.8-4,3.3-6.4,4.5c-2.4,1.2-4.8,2-7.2,2.6c-2,0.4-4.6,1-7.8,1.8c-3.2,0.8-6.7,1.7-10.5,2.7
		c-3.8,1-7.8,2-12,3.1c-4.1,1.1-8.2,2.2-12,3.3c-5.8,1.6-10.7,3-14.8,4.1c-4.1,1.1-7.6,1.9-10.4,2.4c-2.9,0.5-5.2,1-7.1,1.2
		c-1.8,0.3-3.3,0.4-4.4,0.4c-2.4,7.8-4.5,15.4-6.2,22.9c-1.8,7.5-3.2,14.5-4.4,20.9c-1.2,6.5-2.1,12.2-2.6,17.3
		c-0.6,5.1-0.8,9.1-0.8,11.9c0,3.7,0.3,7.2,0.9,10.5c0.6,3.3,1.7,6.2,3.2,8.7s3.5,4.4,6.1,5.8c2.6,1.4,5.8,2.1,9.7,2.1
		c6.6,0,13.2-2,19.6-5.9c6.4-3.9,12.5-8.9,18.4-15c5.8-6.1,11.4-12.7,16.6-19.9c5.2-7.2,10-14.1,14.4-20.6c1.5-2.4,3.5-3.7,5.8-3.7
		c0.8,0,1.7,0.1,2.7,0.4c1.1,0.3,2.1,0.7,3.1,1.4c1,0.7,1.8,1.6,2.5,2.7c0.7,1.1,1,2.4,1,3.9c0,1.1-0.1,1.9-0.2,2.4
		c-2,8.4-5.1,16.9-9.3,25.4c-4.2,8.5-8.5,17-12.9,25.6c-1.5,3-3.5,5.9-5.9,8.8c-2.4,2.9-5.1,5.6-8,8.3c-2.9,2.7-5.9,5.2-9,7.5
		c-3.1,2.4-6.1,4.5-8.8,6.4c-4.8,3.3-10,5.5-15.6,6.7c-5.6,1.2-11.1,1.8-16.4,1.8c-8.2,0-15.4-1.6-21.7-4.8
		c-6.3-3.2-11.7-7.5-16-13.1s-7.6-11.9-9.9-19.3C690.9,311.1,689.8,303.2,689.8,294.8z"/>
	<path class="st0" d="M957.9,349.5c0-3.9,0.4-8.7,1.3-14.2c0.9-5.5,1.3-12.3,1.3-20.5c-4.1,3.3-8.7,7.1-13.7,11.6
		c-5,4.5-10.2,8.8-15.6,12.9c-5.4,4.1-10.8,7.5-16.1,10.3c-5.3,2.8-10.3,4.2-15,4.2c-3.8,0-7.3-0.6-10.7-1.8
		c-3.4-1.2-6.3-2.9-8.7-4.9c-6.7-5.7-11.5-11.4-14.4-17.1c-3-5.7-4.4-12.4-4.4-20c0-3.4,0.3-6.9,0.8-10.6s1.4-7.9,2.5-12.6
		c4.8-21.5,13-41.4,24.6-59.7c11.6-18.3,26-33.9,43.2-46.8c6.6-5,13.3-8.3,20-9.7c6.6-1.4,13.2-2.1,19.8-2.1c2.9,0,6.1,0.2,9.7,0.6
		s6.8,0.8,9.7,1.2c2.9-0.7,5.2-1.2,7.1-1.4c1.8-0.3,3.7-0.4,5.7-0.4c3.8,0,6.9,0.5,9.4,1.6c2.5,1.1,4.5,2.6,6,4.4
		c1.5,1.8,2.6,3.9,3.3,6.3c0.7,2.4,1,4.9,1,7.4c0,3.5-0.5,6.9-1.5,10.1c-1,3.2-2,6.4-3,9.7l-24.8,107.5c-0.5,5.9-0.9,11.2-1.3,16.1
		c-0.4,4.9-1.1,9.5-2.3,13.7c-0.4,1.2-0.8,2.8-1.4,4.6c-0.6,1.8-1.5,3.6-2.7,5.3c-1.3,1.7-2.8,3.2-4.7,4.4c-1.9,1.2-4.3,1.8-7.3,1.8
		c-3.9,0-7-0.3-9.3-0.8c-2.3-0.5-4.1-1.3-5.4-2.3c-1.3-1-2.1-2.2-2.4-3.7C958,353.1,957.9,351.4,957.9,349.5z M895.4,287.9
		c-0.5,1.9-1,4.6-1.6,8.2c-0.6,3.5-0.8,7.1-0.8,10.6c0,3.7,0.5,7,1.5,9.9c1,2.9,3.2,4.4,6.6,4.4c5.3,0,10.2-1.3,14.8-3.8
		c4.6-2.5,8.9-5.5,12.9-9.1c5.4-4.8,10.9-10.1,16.5-16c5.6-5.9,10.9-12.1,15.8-18.7c5-6.5,9.3-13.2,13.2-20.1
		c3.8-6.9,6.6-13.7,8.4-20.5c1-3.9,1.9-8.5,2.5-13.7c0.7-5.2,1-9.8,1-13.9c0-1.8-0.4-3.5-1.1-5.2c-0.8-1.7-2.2-2.5-4.3-2.5
		c-6.2,0-12.3,1.3-18.5,3.9c-6.2,2.6-12.2,6.1-18,10.4c-5.8,4.4-11.3,9.5-16.5,15.4c-5.2,5.9-9.9,12.2-14.2,19
		c-4.3,6.7-7.9,13.7-11,20.8C899.3,274.1,897,281.1,895.4,287.9z"/>
	<path class="st0" d="M1080.2,294.8c0-11.4,1.2-23.3,3.6-35.6c2.4-12.3,4.9-24.1,7.5-35.4c-3.3-0.1-6.6-0.7-10-1.6
		c-3.4-0.9-6.5-2.2-9.2-3.9c-2.8-1.6-5-3.6-6.8-6c-1.8-2.4-2.6-5.1-2.6-8.3c0-1.2,0.3-2.8,0.8-4.7c0.5-1.9,1.2-3.8,2.2-5.6
		c0.9-1.8,2.2-3.4,3.7-4.7c1.5-1.3,3.2-1.9,5.1-1.9h25.2c2.4,0,4-1.1,4.9-3.4c0.9-2.2,1.6-4.5,2.1-6.6c1.6-7.9,3.2-14.7,4.6-20.5
		c1.4-5.8,2.7-10.7,3.7-14.7c1-4,1.8-7.3,2.4-9.8c0.6-2.5,0.8-4.5,0.8-6c0-1.8-0.1-3.5-0.2-5.1c-0.1-1.6-0.2-3.9-0.2-6.7v-2
		c0-1.1,0.1-2.5,0.3-4.3c0.2-1.8,0.8-4.3,1.8-7.5c0.8-2.6,2.1-5,4.1-7.3c2-2.3,5-3.5,8.8-3.5c3.4,0,6.3,0.7,8.7,2.2
		c2.4,1.5,4.3,3.5,5.8,5.9s2.6,5.2,3.4,8.4c0.8,3.1,1.1,6.3,1.1,9.4c0,3.4-0.3,6.5-0.9,9.2l-13.7,57.1c6.8-1.2,12.8-2.4,18.1-3.5
		c5.3-1.1,10.5-2.2,15.8-3.3c5.8-1.2,10.8-2.4,15-3.5c4.2-1.1,7.8-2,10.8-2.8c3-0.7,5.6-1.4,7.6-1.8c2.1-0.5,3.8-0.7,5.2-0.7
		c2,0,4,0.2,6.1,0.5c2.1,0.3,3.9,0.9,5.5,1.7c1.6,0.8,2.9,2,3.9,3.5c1,1.5,1.5,3.5,1.5,5.9c0,3.3-0.6,6.2-1.8,8.7
		c-1.2,2.5-2.7,4.7-4.6,6.5c-1.9,1.8-4,3.3-6.4,4.5c-2.4,1.2-4.8,2-7.2,2.6c-2,0.4-4.6,1-7.8,1.8c-3.2,0.8-6.7,1.7-10.5,2.7
		c-3.8,1-7.8,2-12,3.1c-4.1,1.1-8.2,2.2-12,3.3c-5.8,1.6-10.7,3-14.8,4.1c-4.1,1.1-7.6,1.9-10.4,2.4c-2.9,0.5-5.2,1-7.1,1.2
		c-1.8,0.3-3.3,0.4-4.4,0.4c-2.4,7.8-4.5,15.4-6.2,22.9c-1.8,7.5-3.2,14.5-4.4,20.9c-1.2,6.5-2.1,12.2-2.6,17.3
		c-0.6,5.1-0.8,9.1-0.8,11.9c0,3.7,0.3,7.2,0.9,10.5c0.6,3.3,1.7,6.2,3.2,8.7s3.5,4.4,6.1,5.8c2.6,1.4,5.8,2.1,9.7,2.1
		c6.6,0,13.2-2,19.6-5.9c6.4-3.9,12.5-8.9,18.4-15c5.8-6.1,11.4-12.7,16.6-19.9c5.2-7.2,10-14.1,14.4-20.6c1.5-2.4,3.5-3.7,5.8-3.7
		c0.8,0,1.7,0.1,2.7,0.4c1.1,0.3,2.1,0.7,3.1,1.4c1,0.7,1.8,1.6,2.5,2.7c0.7,1.1,1,2.4,1,3.9c0,1.1-0.1,1.9-0.2,2.4
		c-2,8.4-5.1,16.9-9.3,25.4c-4.2,8.5-8.5,17-12.9,25.6c-1.5,3-3.5,5.9-5.9,8.8c-2.4,2.9-5.1,5.6-8,8.3c-2.9,2.7-5.9,5.2-9,7.5
		c-3.1,2.4-6.1,4.5-8.8,6.4c-4.8,3.3-10,5.5-15.6,6.7c-5.6,1.2-11.1,1.8-16.4,1.8c-8.2,0-15.4-1.6-21.7-4.8
		c-6.3-3.2-11.7-7.5-16-13.1s-7.6-11.9-9.9-19.3C1081.3,311.1,1080.2,303.2,1080.2,294.8z"/>
	<path class="st0" d="M1258.6,280.1c1.9-8.3,4.8-17.1,8.8-26.4c4-9.3,9.1-18.7,15.5-28.3c6.4-9.5,14.1-18.8,23.1-28
		c9-9.1,19.4-17.6,31.2-25.5c1.9-1.2,4.8-2.6,8.7-4c3.9-1.4,7.9-2.3,12-2.6c4.9-5.7,11.5-8.6,19.8-8.6c9.8,0,18,2.7,24.8,8.1
		c6.7,5.4,12.3,12.7,16.7,21.9c1.4,3,2.7,5.9,3.9,8.8c1.2,2.9,2.2,5.9,3,9.1c0.8,3.2,1.5,6.6,2,10.3c0.5,3.7,0.8,7.8,0.8,12.4
		c0,10.7-1.6,21.7-4.7,32.8c-3.1,11.2-7.6,22-13.4,32.6c-5.8,10.6-12.8,20.8-21,30.5c-8.2,9.7-17.3,18.5-27.4,26.2
		c-6.8,5.3-14.3,9.4-22.5,12.3c-8.2,2.9-17.4,4.4-27.6,4.4c-9.7,0-18-1.4-25.1-4.2c-7.1-2.8-13-6.8-17.7-11.9
		c-4.7-5.2-8.2-11.4-10.5-18.6c-2.3-7.2-3.5-15.2-3.5-24.1C1255.3,299.1,1256.4,289.9,1258.6,280.1z M1289.9,282.8
		c-0.8,3.1-1.3,6.1-1.6,8.9c-0.3,2.8-0.5,5.5-0.5,8.1c0,4.5,0.5,8.7,1.6,12.5c1.1,3.9,2.8,7.2,5.2,10c2.4,2.8,5.4,5,8.9,6.5
		c3.6,1.6,7.9,2.3,13.1,2.3c9.5,0,18.4-2.6,26.6-7.9c8.2-5.2,15.5-11.8,21.9-19.7c6.4-7.9,11.8-16.4,16.1-25.4
		c4.3-9,7.4-17.4,9.1-25c1.1-4.8,2.1-9.2,2.9-13.5c0.8-4.2,1.2-8.1,1.2-11.6c0-3.5-0.6-6.8-1.8-9.9c-1.2-3.1-2.7-6.5-4.6-10.3
		c-1.1-2.3-2.3-4.7-3.4-7.2c-1.1-2.5-2.1-5-3-7.4c-1,1.9-2.1,3.6-3.2,5c-1.1,1.4-2.8,2.7-5.1,3.9c-2.3,1.2-5.3,2.2-9.2,3.2
		c-3.9,1-9,1.8-15.2,2.4c-4.1,1.5-8.3,3.8-12.6,6.9c-4.3,3.1-8.4,6.8-12.5,11c-4.1,4.2-8,8.8-11.7,13.7c-3.7,4.9-7,9.9-10,15
		c-3,5.1-5.5,10.1-7.7,15C1292.3,274.2,1290.8,278.7,1289.9,282.8z"/>
</g>
<g>
	<path class="st0" d="M511.3,127.5c0.8,6.4-10,8.2-13.3,4.1C495.5,126.7,508.1,120.7,511.3,127.5z"/>
	<path class="st0" d="M426.2,137.7c3.5,0.6,7.9,0.3,7.2,5.1C430.6,141.5,427.1,141,426.2,137.7z"/>
	<path class="st0" d="M514.4,147c1.1,3.9-4.9,8.5-7.2,12.3c-2.5-0.5-3.7-2.5-5.1-4.1C502.4,149.1,508.8,141.3,514.4,147z"/>
	<path class="st0" d="M440.6,148c-0.9,1.8-1.9,3.6-5.1,3.1c0-1,0-2.1,0-3.1C438,147.9,438.6,146.1,440.6,148z"/>
	<path class="st0" d="M517.5,163.4c4.8,0.4,1.3,3.3,3.1,7.2C515.9,171.8,517,164.2,517.5,163.4z"/>
	<path class="st0" d="M494.9,164.4c4.7-0.4,6.5,5.8,5.1,8.2C495,173.2,495.3,168.4,494.9,164.4z"/>
	<path class="st0" d="M539,166.4c1.4,0,2.7,0,4.1,0c1.3,3,0.5,4.7-3.1,5.1C539.2,170.4,538.7,168.8,539,166.4z"/>
	<path class="st0" d="M447.8,171.6c2.7-0.3,4.4,0.4,4.1,3.1C450,176.7,446.9,175.2,447.8,171.6z"/>
	<path class="st0" d="M459,177.7c-1.3,1.4-4.8,1.4-6.2,0C452.7,172.7,459.2,172.7,459,177.7z"/>
	<path class="st0" d="M365.7,178.8c-4.3-0.9-5.2,0.6-8.2-2.1C358.8,172.6,365,176.1,365.7,178.8z"/>
	<path class="st0" d="M349.3,187c2.6,0.1,4,1.5,4.1,4.1C350.6,193.4,347.2,190,349.3,187z"/>
	<path class="st0" d="M494.9,188c3.8-0.4,3.7,6.2,2.1,8.2C494.4,195.4,491,189.1,494.9,188z"/>
	<path class="st0" d="M531.9,196.2c-3.5-1.8-3.8,0.3-5.1,3.1c-2.6-0.1-4-1.5-4.1-4.1c3.5-2.5,5.4-0.5,6.2-6.2c2.8-0.7,2.1,2,4.1,2.1
		C533.7,194,531.4,193.7,531.9,196.2z"/>
	<path class="st1" d="M512.4,191.1c2.5-0.4,2.2,1.9,5.1,1c0.8,5,2.4,3.9,0,8.2C514.8,198.2,514,194.2,512.4,191.1z"/>
	<path class="st0" d="M327.8,197.2c3.8,0,7.1,0.5,7.2,4.1C332.6,199.9,327.3,201.5,327.8,197.2z"/>
	<path class="st0" d="M500.1,217.7c-0.4-3.5,3.1-3.1,4.1-5.1c-2.7-4.1-8.1-3.9-12.3-4.1c2.5-4.3,5.9-7.7,10.3-10.3
		c0.6,3.3-0.3,5.2-2.1,6.2c7.6,2,6.3,7.7,6.2,13.3C504.9,219.1,501.4,219.1,500.1,217.7z"/>
	<path class="st0" d="M383.2,201.3c1,5.8-1.4,8.2-3.1,11.3c-3.6-0.5-4.5-3.7-7.2-5.1C371.5,199.5,378.7,197.7,383.2,201.3z"/>
	<path class="st0" d="M509.3,203.4c0.4,2.1-0.7,2.7-1,4.1c-1.3-0.4-1.6-1.8-3.1-2.1C505.4,203.6,507,203.1,509.3,203.4z"/>
	<path class="st0" d="M462.1,226.9c-8.3-11.6,8-22.7,9.2-10.3C471.9,221.8,467.7,225.5,462.1,226.9z"/>
	<path class="st0" d="M336,211.6c13.3,8.2-1.4,24.2-7.2,31.8c-1.9-1.8,0.8-2.6,0-6.2c-3.7-0.8-5,2.3-7.2,0c-1.5-6.3,5.2-4.4,8.2-6.2
		C326.6,222.3,331.1,215.3,336,211.6z"/>
	<path class="st0" d="M513.4,218.7c2.7-0.3,4.4,0.4,4.1,3.1c-0.9,0.8-2.3,1.1-4.1,1C513.4,221.5,513.4,220.1,513.4,218.7z"/>
	<path class="st0" d="M481.6,220.8c2.8,0.9,4.8,2.7,6.2,5.1C485.9,227.3,481.1,225,481.6,220.8z"/>
	<path class="st0" d="M313.4,221.8c1.3,0.4,1.6,1.8,3.1,2.1c-0.2,1.8-1.8,2.3-4.1,2.1C312,223.8,313.1,223.2,313.4,221.8z"/>
	<path class="st0" d="M510.3,224.9c2.4-0.3,3.9,0.2,5.1,1c-0.5,0.8-1.1,1.7-1,3.1C511.2,229.5,509.8,228.1,510.3,224.9z"/>
	<path class="st0" d="M398.5,225.9c3.9-0.8,3.9,4.9,0,4.1C398.5,228.7,398.5,227.3,398.5,225.9z"/>
	<path class="st0" d="M387.3,228c3.1,0.1,2.7,6.1-1,5.1C385.1,229.9,385.8,230.4,387.3,228z"/>
	<path class="st0" d="M355.5,232.1c2.6,0.1,4,1.5,4.1,4.1c-0.9,0.8-2.3,1.1-4.1,1C354.2,235.9,354.2,233.4,355.5,232.1z"/>
	<path class="st1" d="M499,232.1c3.3-0.2,4.4,1.7,5.1,4.1c-1.2,1.2-3.6,1.2-6.2,1C497.6,234.7,499.9,235,499,232.1z"/>
	<path class="st0" d="M546.2,232.1c2.7-0.3,4.4,0.4,4.1,3.1C548.6,237,546.3,234.8,546.2,232.1z"/>
	<path class="st0" d="M400.6,237.2c-1.4,0-2.7,0-4.1,0C395.6,232.4,401.9,231.9,400.6,237.2z"/>
	<path class="st0" d="M555.4,234.1c2.3-0.6,1.5,2,3.1,2.1c-2.3,2-5.7,7.2-8.2,3.1C550.2,235.7,555.5,237.6,555.4,234.1z"/>
	<path class="st0" d="M338,235.2c1.4,0,2.7,0,4.1,0c0.4,2.1-0.7,2.7-1,4.1C338.4,239.6,337.8,237.8,338,235.2z"/>
	<path class="st0" d="M349.3,237.2c2.4,2.5-1,5-1,8.2C343.5,244.8,346,237.8,349.3,237.2z"/>
	<path class="st0" d="M475.5,237.2c2.1,0.7,4.2,3.1,2.1,5.1C474,243,473.8,238.7,475.5,237.2z"/>
	<path class="st0" d="M442.6,240.3c1.3,0.4,1.6,1.8,3.1,2.1c-1.3,3.2-1.2,7.7-6.2,7.2C437.1,246.3,441.4,243,442.6,240.3z"/>
	<path class="st0" d="M469.3,241.3c5.3-0.9,3.4,5.5,8.2,5.1c-1,4.1-4.8,5.5-8.2,7.2C466.9,250.1,466.9,244.8,469.3,241.3z"/>
	<path class="st0" d="M429.3,242.3c1,0,2.1,0,3.1,0c0,1.4,0,2.7,0,4.1C429.7,246.7,429,245,429.3,242.3z"/>
	<path class="st0" d="M536,248.5c1.1,2.8,0.2,5.3-1,8.2c-7-1.5-12-5.1-16.4-9.2C521.4,240.7,531.3,247.4,536,248.5z"/>
	<path class="st0" d="M422.1,245.4c1.7-0.3,1.8,1,3.1,1c0.3,4.3-1.3,4,0,7.2c-2.3,0.7-5.1,3.1-7.2,1
		C418.8,249.2,423,250.5,422.1,245.4z"/>
	<path class="st0" d="M386.2,246.4c1,0,2.1,0,3.1,0c0.2,2.9,0.1,5.6-3.1,5.1C386.2,249.9,386.2,248.1,386.2,246.4z"/>
	<path class="st0" d="M402.6,246.4c1.9,1.2,4.9,1.2,4.1,5.1c-1.2-0.2-1.8,0.2-2.1,1C402.3,252,400.4,248.6,402.6,246.4z"/>
	<path class="st0" d="M411.9,248.5c2.7-0.3,3.4,1.4,3.1,4.1c-2.7,0.3-4.4-0.4-4.1-3.1C411.7,249.7,411.8,249.1,411.9,248.5z"/>
	<path class="st0" d="M426.2,248.5c2.5-0.1,4.9-0.2,6.2,1c-0.3,4.1-0.9,8-4.1,9.2C422.9,257.8,427.3,253.4,426.2,248.5z"/>
	<path class="st0" d="M447.8,249.5c1.7-0.3,1.8,1,3.1,1c0.3,2.7-1.4,3.4-4.1,3.1C446.3,251.5,447.4,250.9,447.8,249.5z"/>
	<path class="st0" d="M365.7,251.6c0.8-0.5,1.7-1.1,3.1-1c0.9,1.2,1.4,2.7,1,5.1C366.6,256.1,365.3,254.8,365.7,251.6z"/>
	<path class="st0" d="M358.6,255.7c1,0,2.1,0,3.1,0c0.4,2.1-0.7,2.7-1,4.1C358.8,259.5,358.3,258,358.6,255.7z"/>
	<path class="st0" d="M412.9,255.7c0,1.4,0,2.7,0,4.1c-2.7,0.3-4.4-0.4-4.1-3.1C409.7,255.9,411.1,255.6,412.9,255.7z"/>
	<path class="st0" d="M462.1,255.7c1.4,0,2.7,0,4.1,0C467,259.6,461.3,259.6,462.1,255.7z"/>
	<path class="st0" d="M444.7,257.7C452.8,253.3,447.3,266.5,444.7,257.7L444.7,257.7z"/>
	<path class="st0" d="M597.5,257.7c1,0,2.1,0,3.1,0c0,1.7,0,3.4,0,5.1c-2.1-1.6-6.6-0.9-7.2-4.1c1.7-0.3,1.8,1,3.1,1
		C597.5,259.7,597.3,258.5,597.5,257.7z"/>
	<path class="st0" d="M417,260.8c2.7-0.3,4.4,0.4,4.1,3.1c-0.9,0.8-2.3,1.1-4.1,1C417,263.5,417,262.2,417,260.8z"/>
	<path class="st0" d="M435.5,261.8c2.9,0.2,4.4,1.8,4.1,5.1c-1.3,1.4-4.8,1.4-6.2,0C433.3,264.4,435,263.8,435.5,261.8z"/>
	<path class="st0" d="M457,266.9c-2.9,0.2-5.6,0.1-5.1-3.1C453.8,261.9,458.1,262.8,457,266.9z"/>
	<path class="st0" d="M596.5,263.9c2.1-0.4,2.7,0.7,4.1,1c-1.8,4.3-1.4,4.6-1,10.3c-5-0.5-5.3-5.6-8.2-8.2c3.3-0.9,3.9,0.9,5.1,2.1
		C599.5,268.1,595.1,266.4,596.5,263.9z"/>
	<path class="st0" d="M424.2,264.9c1.4,0,2.7,0,4.1,0c0.4,2.1-0.7,2.7-1,4.1C425.8,268.1,423.3,268.2,424.2,264.9z"/>
	<path class="st0" d="M416,271c2.7-0.3,4.4,0.4,4.1,3.1c-1.3,1.3-3.8,1.3-5.1,0C415.5,273.3,416,272.5,416,271z"/>
	<path class="st0" d="M591.3,273.1c3.9-0.8,3.9,4.9,0,4.1C591.3,275.8,591.3,274.5,591.3,273.1z"/>
	<path class="st0" d="M600.6,283.3c-4.5,1.3-6.5-2.6-4.1-5.1C599.7,278.1,600,280.9,600.6,283.3z"/>
	<path class="st0" d="M589.3,295.7c-1.4,9.9-8,14.5-16.4,17.4c-0.5-5.6,4.6-5.7,6.2-9.2c-0.2-2.8-3-3.1-5.1-4.1
		C572.8,288.5,585.4,289,589.3,295.7z"/>
	<path class="st0" d="M525.7,313.1c1.8,0.2,2.3,1.8,2.1,4.1c-1,0-2,0-3.1,0C524.2,315,525.4,314.5,525.7,313.1z"/>
	<path class="st0" d="M555.4,315.1c0.9-0.8,2.3-1.1,4.1-1c0.2,3.7,4.7,6.9,2.1,10.3C556,323.1,559,319,555.4,315.1z"/>
	<path class="st0" d="M441.6,329.5c0.6,4-0.9,6-2.1,8.2c-5.1,0.8-5.8,0.3-10.3-1C424.3,326.6,437.3,322,441.6,329.5z"/>
	<path class="st0" d="M476.5,355.1c-4.3-2.5-8.1-5.5-11.3-9.2C465.5,322.1,491.4,345.5,476.5,355.1z"/>
	<path class="st0" d="M498,341.8c1.5,0.9,4,0.8,3.1,4.1c-1.4,0-2.7,0-4.1,0C496.6,343.8,497.7,343.2,498,341.8z"/>
	<path class="st0" d="M453.9,345.9c1.8,0.2,2.3,1.8,2.1,4.1c-1,0-2.1,0-3.1,0C452.5,347.9,453.6,347.3,453.9,345.9z"/>
	<path class="st0" d="M449.8,349c2.6,0.1,1.6,3.8,3.1,5.1c10.7-4.9,12.6,7,8.2,15.4c-4.3-1.1-4.5-0.3-9.2,0c0.6-5.6-0.6-15-5.1-18.5
		C447.6,350.1,449.6,350.4,449.8,349z"/>
	<path class="st0" d="M442.6,354.1c6.1,0.2,10.4,15.8,4.1,18.5C446.3,367.6,443.8,361.1,442.6,354.1z"/>
	<path class="st1" d="M437.5,372.6c0.7,1.4,3.4,9.6,5.1,13.3c-4.5,0.7-4.6-3-8.2-3.1C434.4,378.3,438.2,377.7,437.5,372.6z"/>
	<path class="st1" d="M524.7,204.4c-3.5-0.9-2.1-6.8-4.1-9.2c3.1-2.1,3.3-7,6.2-9.2c-2.3-3.5-4.5-6.3,0-9.2
		c-0.6-1.5-1.6-2.5-3.1-3.1c-5,0.1-3,7.2-7.2,8.2c-0.6,3.7,3.1,3,3.1,6.2c-3,0.3-6.1-1.9-9.2,2.1c-2.3-2.5-1.7-7.9-8.2-6.2
		c-0.8-2.9,1.4-2.7,1-5.1c3.5-0.1,3.8,3,5.1,5.1c14.6-0.5,2.5-13.2,6.2-18.5c-0.5-0.9-0.9-1.8-2.1-2.1c-5.3-0.4-1.2,4.8-3.1,6.2
		c-4.1-1-3.1,3.1-7.2,2.1c-0.7,3.1,1,3.7,1,6.2c-1.3-1.4-5-1.6-5.1,1c-1.8-2.7-5-4.5-7.2-4.1c-0.8-3.2,3.5-1.3,2.1-5.1
		c-2.7-3.3-6.7,0.7-5.1,5.1c-4.7-0.4-3.9-3.3-3.1-7.2c-1.7-4.3-9.9-1.4-12.3,0c-7.3-8-12.3-6.2-24.6-5.1c-3.5-4.9-11.9-6.1-14.4-9.2
		c-3.3,0.1-3,3.8-6.2,4.1c2.5-10.1-5.2-5-5.1-11.3c-4.3,1.1-7.3,5.7-5.1,10.3c-5.2-1.1-2.5-9.7,0-13.3c-5.9-0.9-8.3,10-11.3,15.4
		c-3.8-3.5,2.9-12.3,5.1-16.4c-6.2-1.1-9,10.2-13.3,14.4c-0.7-6.3,7.9-21.5,14.4-17.4c3.2-0.7,1.3-2.7,1-5.1
		c3.6-0.2,5.2-2.4,6.2-5.1c14.2,2.5,24.2-11.8,41-9.2c3.3-2.1,8.3-4.7,13.3-2.1c1-4.4,10.4-4.2,10.3,1c2-2.1,3.9-4.3,7.2-5.1
		c1.9,0.2,0.6,3.5,2.1,4.1c2.4,0.3,1.1-3,3.1-3.1c16.8,0.5,31.1,5.2,39,16.4c6.6,9.4,12.6,17.9,10.3,29.7c-3.1-2.1-1.7-5.8-4.1-10.3
		c-7.1-1.5-7.3-9.8-17.4-8.2c-1,0.8-1.6,1.9-2.1,3.1c1.6,6.2,7.3,13.5,14.4,8.2c1,3.8,2.8,6.8,3.1,11.3c3.2,1.3,2.9-0.3,7.2,0
		c-0.2,5.7-3.1,8.5-3.1,14.4c-10.5-1.3-4.1-14.4-8.2-18.5c-3.6,4.5-2.9-1.8-6.2-3.1c-7-0.5-5.1,7.8-1,9.2c3.6,0.6,3.4-4.8,6.2-2.1
		c-0.2,5.6-3.3,8.3-6.2,11.3c-0.2,7.4,4.6,14.2,11.3,6.2c2.4,2.5,0.4,6.4-4.1,5.1C538.7,197.8,524.5,199.4,524.7,204.4z
		 M532.9,191.1c-2,0-1.3-2.8-4.1-2.1c-0.7,5.6-2.7,3.7-6.2,6.2c0.1,2.6,1.5,4,4.1,4.1c1.3-2.7,1.6-4.9,5.1-3.1
		C531.4,193.7,533.7,194,532.9,191.1z M498,131.6c3.4,4.1,14.1,2.3,13.3-4.1C508.1,120.7,495.5,126.7,498,131.6z M433.4,142.9
		c0.7-4.8-3.7-4.5-7.2-5.1C427.1,141,430.6,141.5,433.4,142.9z M502.1,155.2c1.5,1.6,2.6,3.6,5.1,4.1c2.3-3.8,8.3-8.4,7.2-12.3
		C508.8,141.3,502.4,149.1,502.1,155.2z M435.5,148c0,1,0,2.1,0,3.1c3.2,0.5,4.2-1.3,5.1-3.1C438.6,146.1,438,147.9,435.5,148z
		 M520.6,170.6c-1.8-3.9,1.7-6.7-3.1-7.2C517,164.2,515.9,171.8,520.6,170.6z M500.1,172.6c1.4-2.4-0.5-8.6-5.1-8.2
		C495.3,168.4,495,173.2,500.1,172.6z M540.1,171.6c3.6-0.5,4.3-2.2,3.1-5.1c-1.4,0-2.7,0-4.1,0
		C538.7,168.8,539.2,170.4,540.1,171.6z"/>
	<path class="st1" d="M509.3,217.7c3.4,1,3.4-1.4,3.1-4.1c2,1.9,2.6,0.1,5.1,0c0.5,5.3,4.6,13.2,0,17.4c-3.1,0.7-3.7-1-6.2-1
		c-3.9,0.2,0.4,8.6-6.2,6.2c2.8-3.1,1.5-5.5,1-10.3c2.3,0.3,3.9-0.2,4.1-2.1c0.7-2.8-2-2.1-2.1-4.1c-2.9,1.2-5.3,1.2-8.2,0
		c-1.1-2.3-0.7-6.2-2.1-8.2c-3.8-0.1-3.1,4.4-8.2,3.1c0,1,0,2.1,0,3.1c2.5,3.9,5.4-2.9,7.2,0c-3.5,4.8,2.1,7.8,2.1,12.3
		c-5.9,0.1-2.7-9-8.2-9.2c-4.9,3.3,1.7,6.1,2.1,10.3c-1.2-0.9-2.7-1.4-5.1-1c-3,4,3.7,4,1,7.2c-7.2-0.5-0.2-9.8-8.2-10.3
		c-1.5,8.2,3.4,12.8,10.3,15.4c4.4,1,4-5.9,7.2-3.1c-2.9,6.4-12.1,8.3-16.4,10.3c-0.8,2.9,1.4,2.7,1,5.1c-5-1.9-5.7,0.3-10.3,1
		c-2,10.1-14.7,3.5-16.4,14.4c-1.8,0.1-2.2-1.3-4.1-1c-5.1,0.7-0.6,11-6.2,11.3c-0.8-5.3,1.1-7.8,2-11.3c0.2-2.6-1.6-3.2-3.1-4.1
		c-5.5,2.7-2.3,14.1-6.2,18.5c-5.4-2,1.1-10.3-3.1-12.3c-4.7,4.6-3.7,13.9-4.1,19.5c-7-0.6,2-11.3-7.2-10.3
		c-4.2,4.9,2.8,11.7,0,15.4c-5.6-1.9-0.4-14.6-6.2-16.4c-3,6.4,1.4,14.3,2.1,20.5c-2.9-0.8-2.7,1.4-5.1,1c-5.9-7.6-1-21.8-5.1-27.7
		c-5,6.4,0.2,23.7,1,29.7c-9.9,0-4.2-15.6-9.2-20.5c-3.3,2.6-0.6,11.6,0,18.5c-5.6-2.2-2.9-12.8-7.2-16.4c-2.3,2.4-0.8,9.7,0,12.3
		c-5.4-1.7-2-12.4-6.2-15.4c-2.4,2.8-0.4,9.9-1,14.4c-3.6-5.3-3.6-17.6-5.1-27.7c-5.7,0.8-3.7,9.3-4.1,15.4
		c-6.7-2.9-0.3-15.6-3.1-20.5c-3,1.5-2.8,6.1-4.1,9.2c-4.5-2.9,0.9-9.4-3.1-12.3c-4.7,9-2.3,25.1,1,33.8c4.6-1.7-0.3-6.6,1-11.3
		c4.1,3.1,2.5,11.9,7.2,14.4c-2.4-2-6.9-2-10.3-3.1c-2.3-6.6-4.3-13.5-6.2-20.5c-4.4,1.4,0.3,5.7-1,10.3c-1.9-2.5-1.9-7-3.1-10.3
		c-7.9,1.6,0.5,13.9,0,14.4c-6.9-1.4-2.8-16.6-10.3-14.4c0-5.1-4.9-17.8,2.1-17.4c-0.9,5-1.8,14.2,8.2,13.3c2.7-4.4-2.4-13.1,0-17.4
		c8.6,1.6,14.1-8,23.6-3.1c1.9-5.7,6.5-2.5,8.2-8.2c-0.2-0.8-1-1-1-2.1c-4.9,2.3-11.7,4.1-16.4,1c-1.3,2.5-2.1,5.4-4.1,7.2
		c-4.4-0.6-6.8,0.7-10.3,1c0.3-4,0.3-5.2,0-9.2c-4.2,1.6-7.3,11.1-6.2,17.4c-3.7-1.7-5.8-6.6-10.3-2.1c0-2.7,0-5.5,0-8.2
		c-8.6,5.3-1.9,23.2-2.1,32.8c-9.9-3.2-2.6-19.7-6.2-29.7c-5.5,4.1-3,12.4-3.1,18.5c-5-5.1-0.3-8.6-2.1-17.4
		c-4.1-0.7-2.9,3.9-3.1,7.2c-1.7,1.9-0.7-7.5-3.1-8.2c-1.3,0.4-2.1,1.3-2.1,3.1c-5.2-0.9,2.6-9.9-3.1-11.3c-4.4,0.8,0.9,5-2.1,7.2
		c-2.9-5.1-0.5-10.8-5.1-10.3c-0.2-4,5.6-1.9,5.1-6.2c-0.4-2.3-5.4,0-6.2-2.1c0.6-5.3,4.6-4.3,1-9.2c6.3-2.3,8.1-1.3,15.4-2.1
		c0-1.4,0-2.7,0-4.1c-6,1.3-9,1.9-13.3,0c6.4-1.7,1.7-8.8,6.2-11.3c2.2,1.2,4.2,2.6,8.2,2.1c-3.5-4.4,0.1-9.8,3.1-13.3
		c3.5,1,3,4.7,6.2,1c-0.5-4,4.6-5.6,7.2-9.2c14.1,0.7,14.1-12.6,27.7-12.3c3.3-0.9,1.4,3.4,4.1,3.1c4.9-0.6,5.7-5.3,10.3-6.2
		c-0.1,1.5-0.2,2.9,1,3.1c3.3,0.9,1.4-3.3,3.1-4.1c27.1-4.7,60-1,85.1,7.2c0.9,1.2,1.4,2.7,1,5.1c16,1.3,24,9.1,31.8,15.4
		c0,2-2.8,1.3-2.1,4.1c0.2,0.8,1,1,1,2.1c2.3,0.3,3.9-0.2,4.1-2.1c3.7,1.8,3.8,7.1,7.2,9.2C514.9,212.4,509.6,212.6,509.3,217.7z
		 M514.4,229c0-1.4,0.5-2.3,1-3.1c-1.2-0.9-2.7-1.4-5.1-1C509.8,228.1,511.2,229.5,514.4,229z M506.2,217.7
		c0.2-5.7,1.4-11.3-6.2-13.3c1.7-1,2.6-2.8,2.1-6.2c-4.3,2.5-7.7,5.9-10.3,10.3c4.2,0.2,9.6,0,12.3,4.1c-1,2-4.5,1.6-4.1,5.1
		C501.4,219.1,504.9,219.1,506.2,217.7z M451.9,263.9c-0.5,3.2,2.2,3.3,5.1,3.1C458.1,262.8,453.8,261.9,451.9,263.9z M369.8,255.7
		c0.3-2.4-0.2-3.9-1-5.1c-1.4,0-2.3,0.5-3.1,1C365.3,254.8,366.6,256.1,369.8,255.7z M357.5,176.7c3,2.7,3.9,1.1,8.2,2.1
		C365,176.1,358.8,172.6,357.5,176.7z M451.9,174.7c0.3-2.7-1.4-3.4-4.1-3.1C446.9,175.2,450,176.7,451.9,174.7z M452.9,177.7
		c1.3,1.4,4.8,1.4,6.2,0C459.2,172.7,452.7,172.7,452.9,177.7z M353.4,191.1c-0.1-2.6-1.5-4-4.1-4.1
		C347.2,190,350.6,193.4,353.4,191.1z M497,196.2c1.7-2,1.7-8.6-2.1-8.2C491,189.1,494.4,195.4,497,196.2z M335,201.3
		c-0.1-3.6-3.4-4.1-7.2-4.1C327.3,201.5,332.6,199.9,335,201.3z M372.9,207.5c2.7,1.4,3.5,4.7,7.2,5.1c1.7-3.1,4.1-5.5,3.1-11.3
		C378.7,197.7,371.5,199.5,372.9,207.5z M505.2,205.4c1.5,0.2,1.7,1.7,3.1,2.1c0.3-1.4,1.5-2,1-4.1
		C507,203.1,505.4,203.6,505.2,205.4z M471.4,216.7c-1.3-12.4-17.5-1.4-9.2,10.3C467.7,225.5,471.9,221.8,471.4,216.7z M329.8,231.1
		c-3,1.8-9.7-0.1-8.2,6.2c2.2,2.3,3.5-0.8,7.2,0c0.8,3.5-1.9,4.3,0,6.2c5.7-7.6,20.5-23.5,7.2-31.8
		C331.1,215.3,326.6,222.3,329.8,231.1z M513.4,222.8c1.8,0.1,3.2-0.2,4.1-1c0.3-2.7-1.4-3.4-4.1-3.1
		C513.4,220.1,513.4,221.5,513.4,222.8z M487.8,225.9c-1.3-2.4-3.3-4.2-6.2-5.1C481.1,225,485.9,227.3,487.8,225.9z M312.4,225.9
		c2.3,0.3,3.9-0.2,4.1-2.1c-1.5-0.2-1.7-1.7-3.1-2.1C313.1,223.2,312,223.8,312.4,225.9z M398.5,230c3.9,0.8,3.9-4.9,0-4.1
		C398.5,227.3,398.5,228.7,398.5,230z M386.2,233.1c3.8,1,4.1-5,1-5.1C385.8,230.4,385.1,229.9,386.2,233.1z M355.5,237.2
		c1.8,0.1,3.2-0.2,4.1-1c-0.1-2.6-1.5-4-4.1-4.1C354.2,233.4,354.2,235.9,355.5,237.2z M396.5,237.2c1.4,0,2.7,0,4.1,0
		C401.9,231.9,395.6,232.4,396.5,237.2z M341.1,239.3c0.3-1.4,1.5-2,1-4.1c-1.4,0-2.7,0-4.1,0C337.8,237.8,338.4,239.6,341.1,239.3z
		 M348.3,245.4c0-3.2,3.4-5.7,1-8.2C346,237.8,343.5,244.8,348.3,245.4z M477.5,242.3c2.1-2,0-4.4-2.1-5.1
		C473.8,238.7,474,243,477.5,242.3z M439.6,249.5c4.9,0.5,4.9-4,6.2-7.2c-1.5-0.2-1.7-1.7-3.1-2.1
		C441.4,243,437.1,246.3,439.6,249.5z M469.3,253.6c3.4-1.7,7.2-3,8.2-7.2c-4.8,0.4-2.9-6-8.2-5.1
		C466.9,244.8,466.9,250.1,469.3,253.6z M432.4,246.4c0-1.4,0-2.7,0-4.1c-1,0-2.1,0-3.1,0C429,245,429.7,246.7,432.4,246.4z
		 M418,254.6c2,2.1,4.9-0.3,7.2-1c-1.3-3.2,0.3-2.9,0-7.2c-1.3-0.1-1.4-1.3-3.1-1C423,250.5,418.8,249.2,418,254.6z M386.2,251.6
		c3.2,0.5,3.3-2.2,3.1-5.1c-1,0-2.1,0-3.1,0C386.2,248.1,386.2,249.9,386.2,251.6z M404.7,252.6c0.2-0.8,0.9-1.2,2.1-1
		c0.8-3.9-2.2-4-4.1-5.1C400.4,248.6,402.3,252,404.7,252.6z M410.9,249.5c-0.3,2.7,1.4,3.4,4.1,3.1c0.3-2.7-0.4-4.4-3.1-4.1
		C411.8,249.1,411.7,249.7,410.9,249.5z M428.3,258.7c3.2-1.2,3.8-5.1,4.1-9.2c-1.2-1.2-3.6-1.2-6.2-1
		C427.3,253.4,422.9,257.8,428.3,258.7z M446.7,253.6c2.7,0.3,4.4-0.4,4.1-3.1c-1.3-0.1-1.4-1.3-3.1-1
		C447.4,250.9,446.3,251.5,446.7,253.6z M360.6,259.8c0.3-1.4,1.5-2,1-4.1c-1,0-2.1,0-3.1,0C358.3,258,358.8,259.5,360.6,259.8z
		 M408.8,256.7c-0.3,2.7,1.4,3.4,4.1,3.1c0-1.4,0-2.7,0-4.1C411.1,255.6,409.7,255.9,408.8,256.7z M466.2,255.7c-1.4,0-2.7,0-4.1,0
		C461.3,259.6,467,259.6,466.2,255.7z M444.7,257.7C447.3,266.5,452.8,253.3,444.7,257.7L444.7,257.7z M385.2,269
		c4.5,5.1,9.2,9.9,17.4,11.3c0.9-3.9-2.3-11.8-1-19.5c-3.3,0.6-4.8-0.7-7.2-1C390.3,262.8,390.9,270,385.2,269z M417,264.9
		c1.8,0.1,3.2-0.2,4.1-1c0.3-2.7-1.4-3.4-4.1-3.1C417,262.2,417,263.5,417,264.9z M433.4,266.9c1.3,1.4,4.8,1.4,6.2,0
		c0.3-3.3-1.2-4.9-4.1-5.1C435,263.8,433.3,264.4,433.4,266.9z M427.3,269c0.3-1.4,1.5-2,1-4.1c-1.4,0-2.7,0-4.1,0
		C423.3,268.2,425.8,268.1,427.3,269z M415,274.1c1.3,1.3,3.8,1.3,5.1,0c0.3-2.7-1.4-3.4-4.1-3.1C416,272.5,415.5,273.3,415,274.1z"
		/>
	<path class="st0" d="M537,200.3c14.1,2.2,26.3,11,26.7,23.6c3.4,1.8,7,3.2,12.3,3.1c7.8,9.4,19.2,9.3,27.7,18.5
		c18,19.4,10.5,57.7,0,80c7.7,0.4,17.7,1.2,24.6,5.1c3.5,7.9,5.1,16.5,1,24.6c-2.6,1.5-4,2.4-7.2,4.1c-14.5,7.6-31.3,25.2-46.1,31.8
		c-6.2,2.8-22.8,8.7-31.8,9.2c-2,0.1-5.1-1.5-7.2-1c-6.6,1.4-10,7.9-16.4,10.3c-13.8,5-28.1,2.6-42,6.2c-2.7,0.3-3.4-1.4-3.1-4.1
		c-13.1,6.8-56.7,10.8-60.5-8.2c-1.9-9.3,3-15.4,10.3-19.5c-8.8-8.7-18.8-21.4-14.4-40c-8.9,0.8-29,0.3-30.8-12.3
		c-34.5,9-69.3-11.2-76.9-44.1c5.6-3.6,13.3-5.1,18.5-9.2c-7.2-9.7-20.1-16.8-21.5-31.8c-0.4-3.8,1.9-6.7,2.1-10.3
		c0.4-11.9-3.6-23.9,2.1-35.9c15.2-9.9,20-20.3,40-26.7c9.2-3,20.3-11.6,27.7-13.3c6.7-1.6,10.1,1.2,14.4-2.1
		c5.4-4.1,5.4-12.1,10.3-18.5c13.1-17.3,33.5-21.8,55.4-28.7c3.2-1.2,2.5,1.6,4.1,2.1c28.2-13.6,81.2-8.9,87.2,23.6
		c1.9,3.2,6.5,3.8,8.2,7.2C555.8,166.8,551.6,185.3,537,200.3z M534.9,187c4.5,1.3,6.5-2.6,4.1-5.1c-6.7,8.1-11.4,1.2-11.3-6.2
		c2.9-2.9,6-5.6,6.2-11.3c-2.8-2.8-2.6,2.7-6.2,2.1c-4.1-1.4-5.9-9.7,1-9.2c3.3,1.2,2.5,7.6,6.2,3.1c4.1,4-2.3,17.2,8.2,18.5
		c-0.1-5.9,2.9-8.7,3.1-14.4c-4.3-0.3-4,1.3-7.2,0c-0.3-4.5-2.1-7.5-3.1-11.3c-7,5.3-12.8-2-14.4-8.2c0.5-1.2,1.1-2.3,2.1-3.1
		c10.1-1.6,10.4,6.7,17.4,8.2c2.4,4.4,1,8.1,4.1,10.3c2.4-11.9-3.7-20.4-10.3-29.7c-7.9-11.2-22.2-15.9-39-16.4
		c-1.9,0.1-0.7,3.4-3.1,3.1c-1.4-0.6-0.2-3.9-2.1-4.1c-3.3,0.8-5.2,3-7.2,5.1c0.1-5.3-9.2-5.4-10.3-1c-5-2.7-10,0-13.3,2.1
		c-16.8-2.6-26.8,11.7-41,9.2c-1,2.8-2.6,4.9-6.2,5.1c0.3,2.4,2.2,4.4-1,5.1c-6.5-4.1-15,11.1-14.4,17.4c4.4-4.2,7.1-15.4,13.3-14.4
		c-2.2,4.1-9,12.9-5.1,16.4c2.9-5.4,5.4-16.2,11.3-15.4c-2.5,3.6-5.2,12.2,0,13.3c-2.2-4.5,0.8-9.2,5.1-10.3
		c-0.1,6.3,7.7,1.2,5.1,11.3c3.1-0.3,2.9-4,6.2-4.1c2.5,3.1,10.8,4.3,14.4,9.2c12.3-1.1,17.3-2.9,24.6,5.1c2.4-1.4,10.6-4.3,12.3,0
		c-0.8,3.9-1.6,6.7,3.1,7.2c-1.6-4.4,2.4-8.4,5.1-5.1c1.5,3.9-2.8,2-2.1,5.1c2.2-0.4,5.4,1.4,7.2,4.1c0.1-2.6,3.8-2.4,5.1-1
		c0-2.4-1.8-3-1-6.2c4.1,1,3.1-3.1,7.2-2.1c1.8-1.3-2.3-6.5,3.1-6.2c1.2,0.2,1.6,1.1,2.1,2.1c-3.6,5.2,8.4,18-6.2,18.5
		c-1.3-2.1-1.6-5.2-5.1-5.1c0.4,2.5-1.9,2.2-1,5.1c6.5-1.7,5.9,3.7,8.2,6.2c3.1-3.9,6.3-1.8,9.2-2.1c0.1-3.1-3.7-2.5-3.1-6.2
		c4.2-1,2.2-8.1,7.2-8.2c1.5,0.6,2.5,1.6,3.1,3.1c-4.5,3-2.3,5.7,0,9.2c-2.9,2.3-3.1,7.2-6.2,9.2c2,2.5,0.6,8.3,4.1,9.2
		C524.5,199.4,538.7,197.8,534.9,187z M515.4,207.5c-3.4-2.1-3.5-7.4-7.2-9.2c-0.2,1.8-1.8,2.3-4.1,2.1c0-1-0.8-1.2-1-2.1
		c-0.7-2.8,2-2.1,2.1-4.1c-7.8-6.3-15.7-14.1-31.8-15.4c0.3-2.4-0.2-3.9-1-5.1c-25.1-8.2-58-11.8-85.1-7.2c-1.6,0.8,0.2,5-3.1,4.1
		c-1.2-0.2-1.1-1.6-1-3.1c-4.6,0.9-5.4,5.6-10.3,6.2c-2.7,0.3-0.8-4-4.1-3.1c-13.6-0.3-13.6,13.1-27.7,12.3
		c-2.6,3.6-7.7,5.3-7.2,9.2c-3.2,3.6-2.7-0.1-6.2-1c-3,3.5-6.6,8.9-3.1,13.3c-4,0.6-6-0.9-8.2-2.1c-4.5,2.5,0.2,9.6-6.2,11.3
		c4.3,1.9,7.4,1.3,13.3,0c0,1.4,0,2.7,0,4.1c-7.2,0.8-9.1-0.3-15.4,2.1c3.6,4.9-0.4,3.9-1,9.2c0.7,2,5.7-0.3,6.2,2.1
		c0.5,4.3-5.4,2.1-5.1,6.2c4.6-0.5,2.2,5.2,5.1,10.3c3-2.2-2.3-6.4,2.1-7.2c5.7,1.4-2.1,10.4,3.1,11.3c-0.1-1.8,0.8-2.6,2.1-3.1
		c2.4,0.7,1.4,10.1,3.1,8.2c0.1-3.3-1-7.8,3.1-7.2c1.7,8.9-3,12.3,2.1,17.4c0.1-6.1-2.5-14.4,3.1-18.5c3.6,10-3.8,26.5,6.2,29.7
		c0.1-9.6-6.5-27.5,2.1-32.8c0,2.7,0,5.5,0,8.2c4.4-4.5,6.5,0.3,10.3,2.1c-1.1-6.3,2-15.9,6.2-17.4c0.3,4,0.3,5.2,0,9.2
		c3.5-0.3,5.9-1.6,10.3-1c2-1.7,2.8-4.7,4.1-7.2c4.7,3.1,11.5,1.3,16.4-1c0,1,0.8,1.2,1,2.1c-1.7,5.7-6.3,2.5-8.2,8.2
		c-9.5-4.9-15,4.7-23.6,3.1c-2.4,4.4,2.7,13,0,17.4c-10,0.8-9.1-8.4-8.2-13.3c-6.9-0.4-2,12.3-2.1,17.4c7.5-2.3,3.4,12.9,10.3,14.4
		c0.5-0.5-7.9-12.7,0-14.4c1.2,3.2,1.2,7.7,3.1,10.3c1.4-4.5-3.4-8.8,1-10.3c1.9,7,3.9,13.9,6.2,20.5c3.4,1.1,7.8,1.1,10.3,3.1
		c-4.7-2.5-3.1-11.3-7.2-14.4c-1.3,4.7,3.6,9.6-1,11.3c-3.3-8.7-5.7-24.8-1-33.8c3.9,2.9-1.4,9.4,3.1,12.3c1.3-3.2,1.1-7.8,4.1-9.2
		c2.8,4.9-3.6,17.6,3.1,20.5c0.4-6.1-1.6-14.6,4.1-15.4c1.5,10.1,1.6,22.4,5.1,27.7c0.7-4.5-1.3-11.6,1-14.4
		c4.2,3,0.7,13.6,6.2,15.4c-0.8-2.6-2.3-9.9,0-12.3c4.2,3.6,1.6,14.2,7.2,16.4c-0.6-6.9-3.3-15.8,0-18.5c5,4.9-0.7,20.5,9.2,20.5
		c-0.8-6-6-23.3-1-29.7c4.2,5.9-0.8,20.1,5.1,27.7c2.5,0.4,2.2-1.9,5.1-1c-0.6-6.2-5-14.1-2.1-20.5c5.7,1.8,0.5,14.5,6.2,16.4
		c2.8-3.6-4.2-10.5,0-15.4c9.1-1.1,0.2,9.7,7.2,10.3c0.4-5.6-0.6-14.9,4.1-19.5c4.2,2-2.3,10.3,3.1,12.3c3.9-4.3,0.6-15.8,6.2-18.5
		c1.5,0.9,3.2,1.5,3.1,4.1c-1,3.5-2.9,6-2,11.3c5.5-0.3,1-10.6,6.2-11.3c1.9-0.2,2.3,1.2,4.1,1c1.7-10.8,14.5-4.3,16.4-14.4
		c4.6-0.7,5.3-2.9,10.3-1c0.4-2.5-1.9-2.2-1-5.1c4.3-2,13.5-3.8,16.4-10.3c-3.2-2.9-2.8,4.1-7.2,3.1c-6.9-2.6-11.7-7.2-10.3-15.4
		c8,0.5,1,9.8,8.2,10.3c2.6-3.1-4-3.2-1-7.2c2.4-0.3,3.9,0.2,5.1,1c-0.3-4.1-6.9-6.9-2.1-10.3c5.5,0.3,2.3,9.3,8.2,9.2
		c0-4.5-5.6-7.5-2.1-12.3c-1.7-2.9-4.7,3.9-7.2,0c0-1,0-2.1,0-3.1c5.1,1.3,4.4-3.2,8.2-3.1c1.4,2,1,5.9,2.1,8.2
		c2.9,1.2,5.3,1.2,8.2,0c0,2,2.8,1.3,2.1,4.1c-0.2,1.8-1.8,2.3-4.1,2.1c0.5,4.8,1.7,7.2-1,10.3c6.5,2.4,2.2-6,6.2-6.2
		c2.4,0,3,1.8,6.2,1c4.6-4.2,0.5-12.1,0-17.4c-2.6,0.1-3.2,1.9-5.1,0c0.3,2.7,0.3,5.1-3.1,4.1C509.6,212.6,514.9,212.4,515.4,207.5z
		 M517.5,200.3c2.4-4.3,0.8-3.2,0-8.2c-2.9,0.8-2.7-1.4-5.1-1C514,194.2,514.8,198.2,517.5,200.3z M607.7,280.3
		c-11.5,0.5,0.6-19-5.1-25.6c-1.8-0.4-2.6,1.5-3.1,0c-4.9-6.7-9.4-13.9-20.5-14.4c-13.4-13.6-34.6-13.2-56.4-8.2
		c-9.2,4.8-18.3,18.3-28.7,15.4c-3.8,4.4,1.4,6.1-1,11.3c-17.2,0.9-25.4,10.9-35.9,18.5c-0.6,3.3,0.7,4.8,1,7.2
		c-18.8,0.3-25.2,13-35.9,21.5c-0.5,7.4-2.3,13.4-7.2,16.4c1.6,11.6-4.2,25.6,2.1,34.9c1.9-3.2,2.6-7.6,7.2-8.2
		c4.8,4,1.2,10,4.1,15.4c-1.3,1.4-4.8,0.6-6.2,2.1c-0.5,3.2,1.5,4,2.1,6.2c3.6,0.2,2-4.8,6.2-4.1c0,3.4,0,6.8,0,10.3
		c5.3-3.3,2.2-12.2,2.1-16.4c2.1-2.1,2,0.5,4.1,1c0.6-1.5-1.2-5.3,1-5.1c3.6,3.1,6.1,12.1,4.1,17.4c4.6,1.5,8.1,4.2,11.3,7.2
		c1.2-2.2,0.2-6.6,3.1-7.2c3.2,7.3-1.9,11.7-1,16.4c7.9-0.6,3.5-13.6,8.2-17.4c2.9,5.1-2.7,14.5-1,18.5c8.9-7.6,4.6-22.7,3.1-34.9
		c1.4,0,2.3-0.5,3.1-1c6.2,2.3,7.7,0.2,13.3,0c1.9,2.9,5.1,13,1,15.4c-3.3-0.6-6.5-1.4-8.2-1c2.8,6.4,1.1,14.1-2.1,19.5
		c-5.3-3.2,2.3-8.3-1-11.3c-1.3,4.1-2.8,8.1-3.1,13.3c3.7,0.3,6.7-0.2,9.2-1c2.7-5.2,2.7-13.1,8.2-15.4c0.8,7.2-4.6,8.3-4.1,15.4
		c9.5-6,8.1-22.4,6.2-34.9c7.6,5,3.9,22.8,4.1,29.7c6.1-9.9,2-19.9,3.1-29.7c3.4,1.9,3.6,5.4,7.2,2.1c4.4,6.3,1,16.9,3.1,23.6
		c5.1-7.7,0.1-17,3.1-23.6c5.2,2.5,2.9,14.9,2.1,20.5c10.1-3.8,3-19,6.2-28.7c1.8-0.1,2.6,0.8,3.1,2.1c-6.2,9.2,6.5,15.9,1,24.6
		c9.9-5.7,12.6-27.5,6.2-37.9c-1.8,4.8,1,12.1-1,17.4c-5.9-0.3-1.9-10.4-3.1-15.4c-2.1-2.7-5.3-8.5-4.1-11.3
		c3.8-1.1,2.9,2.5,6.2,2.1c-0.1-3.6-3.8-3.7-3.1-8.2c13.8,8.5,13.3,30.4,9.2,45.1c5.9-0.3,2.1-10.3,6.2-12.3
		c4.9,4.2-1.2,13.3-3.1,17.4c10.6,0.4,13-7.5,15.4-15.4c-5.8,1.4-5.4,9-10.3,11.3c6.3-18.1-5-37.5-9.2-50.2c5.3,0.9,4.5,7.8,9.2,9.2
		c0.2,2.1,3.3-3.8,4.1,1c-0.2,1.9-3.5,0.6-4.1,2.1c0.9,2.5,0.9,5.9,4.1,6.2c-1.9-3.6,0.5-4.6,3.1-6.2c-3.4-6.5-5-20.2-5.1-26.7
		c8,11.4,7.1,31.8,14.4,44.1c-1.2,5.3-5.3,13.1-4.1,17.4c19.1-14.9-7-43.9,1-54.3c1.4,2,1.4,5.4,4.1,6.2c-3.8,9.3,6,20,6.2,33.8
		c3.4-8.8,1.2-17,1-23.6c4.6,0.9,2.8,8.1,4.1,12.3c7.1-0.2-0.1-11.1,3.1-13.3c5.2,6.6,4.1,13.2,2.1,21.5c11.8-6.2-1.3-23.8,3.1-29.7
		c1.6,8,6.5,12.7,5.1,23.6c7.8-4.4-4.4-20.6,1-25.6c4.2,4.3,3.5,13.6,6.2,19.5c5.3-7.6-5.1-17.3,0-21.5c3.3,0.8,1.6,6.6,5.1,7.2
		c0.6-4.7-1.8-6.4-1-11.3c1.8-0.1,3.2,0.2,4.1,1c0-3.2-4.4-7.8,0-9.2c1.4-0.2,3.1,4.2,4.1,1c-3.8-4.2,3.1-3.3,4.1-4.1
		c-1.4-2.4-2.9-4.6-3.1-8.2c-3.9-1.5-2,2.8-5.1,2.1c1.8-3.5-1.8-7.8,5.1-7.2c-0.8,4.6,1,6.6,5.1,6.2c0-5.4-5.6-5.3-6.2-10.3
		C602.4,280.8,608,286.1,607.7,280.3z M498,237.2c2.5,0.1,4.9,0.2,6.2-1c-0.7-2.4-1.8-4.3-5.1-4.1C499.9,235,497.6,234.7,498,237.2z
		 M434.4,382.8c3.6,0.1,3.7,3.8,8.2,3.1c-1.8-3.7-4.5-11.9-5.1-13.3C438.2,377.7,434.4,378.3,434.4,382.8z"/>
	<path class="st1" d="M600.6,283.3c0.6,4.9,6.1,4.8,6.2,10.3c-4.2,0.4-5.9-1.6-5.1-6.2c-7-0.6-3.4,3.7-5.1,7.2
		c3.2,0.8,1.3-3.5,5.1-2.1c0.1,3.6,1.7,5.8,3.1,8.2c-1,0.8-7.9-0.1-4.1,4.1c-1,3.1-2.7-1.2-4.1-1c-4.4,1.5,0,6.1,0,9.2
		c-0.9-0.8-2.3-1.1-4.1-1c-0.8,4.9,1.6,6.6,1,11.3c-3.5-0.6-1.8-6.4-5.1-7.2c-5.1,4.2,5.3,13.9,0,21.5c-2.7-5.9-1.9-15.2-6.2-19.5
		c-5.5,5,6.8,21.3-1,25.6c1.3-10.9-3.6-15.6-5.1-23.6c-4.3,6,8.8,23.6-3.1,29.7c2-8.3,3.2-15-2.1-21.5c-3.1,2.2,4,13.2-3.1,13.3
		c-1.3-4.2,0.5-11.4-4.1-12.3c0.2,6.6,2.3,14.8-1,23.6c-0.2-13.9-10-24.5-6.2-33.8c-2.7-0.8-2.7-4.1-4.1-6.2
		c-8.1,10.4,18.1,39.4-1,54.3c-1.2-4.3,2.9-12.2,4.1-17.4c-7.2-12.3-6.3-32.7-14.4-44.1c0.1,6.4,1.7,20.1,5.1,26.7
		c-2.6,1.6-5,2.6-3.1,6.2c-3.2-0.2-3.2-3.6-4.1-6.2c0.6-1.4,3.9-0.2,4.1-2.1c-0.8-4.8-3.9,1.1-4.1-1c-4.7-1.5-3.9-8.4-9.2-9.2
		c4.3,12.7,15.6,32.2,9.2,50.2c4.9-2.3,4.5-9.9,10.3-11.3c-2.4,7.9-4.8,15.7-15.4,15.4c1.8-4.2,7.9-13.2,3.1-17.4
		c-4.1,2.1-0.3,12-6.2,12.3c4-14.7,4.6-36.6-9.2-45.1c-0.7,4.5,3,4.6,3.1,8.2c-3.2,0.5-2.3-3.1-6.2-2.1c-1.2,2.8,2,8.6,4.1,11.3
		c1.2,5-2.8,15.1,3.1,15.4c2-5.4-0.7-12.6,1-17.4c6.5,10.4,3.8,32.2-6.2,37.9c5.5-8.7-7.3-15.4-1-24.6c-0.4-1.3-1.3-2.1-3.1-2.1
		c-3.2,9.7,3.9,24.9-6.2,28.7c0.8-5.6,3.2-18-2.1-20.5c-2.9,6.6,2,15.9-3.1,23.6c-2.1-6.7,1.3-17.3-3.1-23.6
		c-3.6,3.3-3.8-0.2-7.2-2.1c-1.1,9.8,3,19.8-3.1,29.7c-0.2-6.9,3.5-24.7-4.1-29.7c2,12.4,3.4,28.9-6.2,34.9c-0.5-7,4.9-8.1,4.1-15.4
		c-5.5,2.3-5.5,10.2-8.2,15.4c-2.6,0.9-5.5,1.3-9.2,1c0.3-5.2,1.8-9.2,3.1-13.3c3.4,3-4.3,8.1,1,11.3c3.2-5.4,4.9-13.1,2.1-19.5
		c1.7-0.4,4.9,0.4,8.2,1c4.1-2.4,0.9-12.5-1-15.4c-5.6,0.2-7.1,2.3-13.3,0c-0.8,0.5-1.7,1.1-3.1,1c1.6,12.2,5.8,27.3-3.1,34.9
		c-1.7-3.9,3.9-13.3,1-18.5c-4.7,3.8-0.3,16.8-8.2,17.4c-0.9-4.8,4.2-9.1,1-16.4c-2.9,0.5-1.9,4.9-3.1,7.2c-3.2-3-6.7-5.7-11.3-7.2
		c2-5.4-0.5-14.3-4.1-17.4c-2.2-0.2-0.5,3.6-1,5.1c-2.1-0.6-2-3.1-4.1-1c0.2,4.2,3.2,13.1-2.1,16.4c0-3.4,0-6.8,0-10.3
		c-4.1-0.7-2.5,4.3-6.2,4.1c-0.6-2.1-2.5-2.9-2.1-6.2c1.3-1.4,4.8-0.6,6.2-2.1c-2.9-5.4,0.7-11.4-4.1-15.4c-4.6,0.6-5.3,5-7.2,8.2
		c-6.2-9.3-0.4-23.3-2.1-34.9c4.8-3,6.7-9,7.2-16.4c10.6-8.5,17.1-21.2,35.9-21.5c-0.3-2.4-1.6-3.9-1-7.2
		c10.5-7.6,18.7-17.5,35.9-18.5c2.5-5.2-2.8-6.8,1-11.3c10.4,2.9,19.5-10.6,28.7-15.4c21.8-5,43-5.4,56.4,8.2
		c11.1,0.5,15.6,7.7,20.5,14.4c0.4,1.5,1.3-0.4,3.1,0c5.7,6.6-6.3,26.1,5.1,25.6C608,286.1,602.4,280.8,600.6,283.3z M596.5,278.2
		c-2.4,2.5-0.4,6.4,4.1,5.1C600,280.9,599.7,278.1,596.5,278.2z M561.6,324.4c2.6-3.4-1.8-6.5-2.1-10.3c-1.8-0.1-3.2,0.2-4.1,1
		C559,319,556,323.1,561.6,324.4z M550.3,235.2c0.3-2.7-1.4-3.4-4.1-3.1C546.3,234.8,548.6,237,550.3,235.2z M550.3,239.3
		c2.5,4.1,5.9-1.1,8.2-3.1c-1.6-0.1-0.8-2.6-3.1-2.1C555.5,237.6,550.2,235.7,550.3,239.3z M518.5,247.5c4.4,4.1,9.4,7.7,16.4,9.2
		c1.2-2.9,2.1-5.4,1-8.2C531.3,247.4,521.4,240.7,518.5,247.5z M596.5,259.8c-1.3-0.1-1.4-1.3-3.1-1c0.6,3.2,5.1,2.5,7.2,4.1
		c0-1.7,0-3.4,0-5.1c-1,0-2.1,0-3.1,0C597.3,258.5,597.5,259.7,596.5,259.8z M596.5,269c-1.2-1.2-1.9-2.9-5.1-2.1
		c2.9,2.6,3.2,7.7,8.2,8.2c-0.4-5.7-0.7-6,1-10.3c-1.4-0.3-2-1.5-4.1-1C595.1,266.4,599.5,268.1,596.5,269z M591.3,277.2
		c3.9,0.8,3.9-4.9,0-4.1C591.3,274.5,591.3,275.8,591.3,277.2z M573.9,299.8c2.1,1,4.9,1.3,5.1,4.1c-1.6,3.5-6.7,3.6-6.2,9.2
		c8.4-2.9,15-7.6,16.4-17.4C585.4,289,572.8,288.5,573.9,299.8z M562.6,315.1c-0.5,3.2,0.9,4.6,4.1,4.1c-1.1-6.1,1.8-4.3,4.1-5.1
		c0.1-1.8-0.2-3.2-1-4.1C565.8,310.1,567,315.5,562.6,315.1z M524.7,317.2c1,0,2.1,0,3.1,0c0.3-2.3-0.2-3.9-2.1-4.1
		C525.4,314.5,524.2,315,524.7,317.2z M429.3,336.7c4.5,1.3,5.2,1.8,10.3,1c1.2-2.2,2.6-4.2,2.1-8.2
		C437.3,322,424.3,326.6,429.3,336.7z M465.2,345.9c3.1,3.7,6.9,6.7,11.3,9.2C491.4,345.5,465.5,322.1,465.2,345.9z M497,345.9
		c1.4,0,2.7,0,4.1,0c0.9-3.3-1.6-3.2-3.1-4.1C497.7,343.2,496.6,343.8,497,345.9z M452.9,350c1,0,2.1,0,3.1,0
		c0.3-2.3-0.2-3.9-2.1-4.1C453.6,347.3,452.5,347.9,452.9,350z M446.7,351c4.5,3.5,5.8,12.8,5.1,18.5c4.7-0.3,5-1.1,9.2,0
		c4.4-8.4,2.5-20.3-8.2-15.4c-1.4-1.3-0.4-5-3.1-5.1C449.6,350.4,447.6,350.1,446.7,351z M446.7,372.6c6.3-2.7,2-18.2-4.1-18.5
		C443.8,361.1,446.3,367.6,446.7,372.6z"/>
	<path class="st0" d="M569.8,310c0.8,0.9,1.1,2.3,1,4.1c-2.3,0.8-5.2-0.9-4.1,5.1c-3.2,0.5-4.6-0.9-4.1-4.1
		C567,315.5,565.8,310.1,569.8,310z"/>
	<path class="st0" d="M394.4,259.8c2.4,0.3,3.8,1.6,7.2,1c-1.3,7.7,1.9,15.6,1,19.5c-8.2-1.4-13-6.2-17.4-11.3
		C390.9,270,390.3,262.8,394.4,259.8z"/>
</g>
</svg>
